<?xml version="1.0" encoding="UTF-8"?>
<svg id="Capa_1" data-name="Capa 1" xmlns="http://www.w3.org/2000/svg" viewBox="0 0 1920 1080">
  <defs>
    <style>
      .cls-1 {
        fill: gray;
      }

      .cls-1, .cls-2, .cls-3 {
        fill-rule: evenodd;
      }

      .cls-2 {
        fill: #fd4c0c;
      }

      .cls-4, .cls-5 {
        fill: none;
      }

      .cls-5 {
        stroke: #000;
        stroke-miterlimit: 22.93;
        stroke-width: 11px;
      }
    </style>
  </defs>
  <path class="cls-3" d="M1237.44,636.8c0,18.25,11.67,16.27,18.9,18.71l9.42,2.63c.04-1.85.57-1.89.71-3.56-1.5-.13-6.73-1.57-9.2-1.78l.46-.25c.07-.03.38-.19.47-.24l2.62-1.63c9.99-7.18,6.34-29.16-7.44-29.16h-.27c-5.58.02-7.55.52-11.69,4.7-2.17,2.19-3.98,6.32-3.98,10.59M1251.96,650.67c-3.19,0-5.46-1.47-6.98-3.3-4.92-5.88-4.77-22.3,7.69-22.3,5.44,0,9.2,6.05,9.2,11.73v2.13c0,6.13-3.88,11.73-9.91,11.73"/>
  <path class="cls-3" d="M1125.22,647.12l-15.58-25.25c-5.83,0-4.6-2.54-4.6,13.51v18.13h4.25v-13.16c0-4.55-.35-8.05-.35-12.8l15.58,25.96h4.6v-31.65c-5.18,0-4.25-2.15-4.25,10.67,0,2.49,0,4.98,0,7.48,0,2.6.36,4.19.36,7.1M1125.22,647.12c.36.48.35-.75.35,1.07-.33-.44-.23.4-.35-1.07"/>
  <path class="cls-3" d="M660.06,637.87c0,21.77,29.03,22.04,29.03-.35,0-8-5.14-16-13.1-16h-.24c-5.03.02-8.79.81-12.01,5.12-1.17,1.56-1.98,2.96-2.58,4.87-.49,1.55-1.1,4.42-1.1,6.36M664.66,638.23c0-6.2,3.04-13.16,9.2-13.16h1.77c11.26,0,12.84,25.6-1.42,25.6-3.05,0-5.77-2.02-7.02-3.97-1.44-2.23-2.54-4.91-2.54-8.48"/>
  <path class="cls-3" d="M970.52,637.87c0,21.77,29.03,22.04,29.03-.35,0-8-5.14-16-13.1-16h-.24c-5.03.02-8.79.81-12.01,5.12-1.17,1.56-1.98,2.96-2.58,4.87-.49,1.55-1.1,4.42-1.1,6.36M975.12,638.23c0-6.2,3.04-13.16,9.2-13.16h1.77c11.56,0,12.24,25.6-.71,25.6-6.41,0-10.27-5.95-10.27-12.44"/>
  <path class="cls-3" d="M1413.38,623.29v30.22h4.6v-13.51c5.29,0,7.56-.48,9.52,4.67l2.17,8.85h4.6l-2.33-8.68c-1.06-4.77-2.36-4.83-4.39-6.61,7.95-1.86,7.99-16.36-3.54-16.36l-8.63.22c-1.14.18-1.99-.03-1.99,1.2M1421.88,636.8h-3.89v-11.38c13.93-3.26,14.07,11.38,3.89,11.38"/>
  <path class="cls-3" d="M902.55,622.22v31.29h4.6v-13.51c8.55,0,7.91.52,10.39,9.12.47,1.61.96,2.94,1.29,4.39h4.6c-2.05-3.88-2.02-9.44-3.9-12.44-.91-1.46-2.06-1.79-2.83-2.85,7.43-1.74,8.07-16.36-3.9-16.36l-10.26.35ZM911.05,636.8h-3.89v-11.38c3.89-.91,10.62-.47,10.62,4.27,0,3.52-.61,7.11-6.73,7.11"/>
  <path class="cls-3" d="M1165.93,653.51h4.25c.37-1.61.98-3.18,1.54-4.85.6-1.77,1.22-2.93,1.64-4.75h11.33c.24,2.96,2.59,6.64,2.83,9.6h4.6c-.15-1.78-9.71-27.7-10.62-31.64h-4.96c-.98,2.04-1.76,5.23-2.68,7.62l-7.94,24.03ZM1178.68,626.49c1.05.77.36-.41,1.27,3.35.85,3.51,2.56,7.2,3.33,10.52h-8.85c.89-1.85,4.06-11.6,4.25-13.87"/>
  <path class="cls-3" d="M1282.75,642.85c0,2.89,1.54,6.46,2.92,8.09,5.3,6.24,20.09,3.83,20.09-8.09v-20.98h-3.89c0,5.19.63,21.05-1.3,25.01-1.57,3.21-6.39,5.03-10.09,2.78-4.82-2.93-3.48-12.46-3.48-19.61,0-9.38,1.1-8.18-4.25-8.18v20.98Z"/>
  <path class="cls-3" d="M868.22,622.94v30.58h18.05v-3.56h-13.45v-11.02h12.04v-3.55h-12.04v-9.6h12.04c1.62,0,1.62-3.91,0-3.91h-15.58c-.82,0-1.06.25-1.06,1.07"/>
  <path class="cls-3" d="M801.66,637.51c0,1.09-8.71,14.14-9.2,16h4.6c1.25-1.88,2.39-4.33,3.56-6.38.9-1.58,3.12-4.67,3.52-6.42.79.58,1.41,1.94,2.01,2.96.74,1.26,1.33,1.99,2.09,3.24,1.4,2.28,2.48,4.3,3.69,6.6h4.96l-9.91-16,8.75-14.03c1.26-1.88.96-1.62-3.09-1.62-1.65,0-7.5,11.55-7.79,12.8-.79-.58-2.98-5-3.66-6.28-.67-1.25-1.1-1.84-1.77-3.2-.69-1.41-1.24-2.15-2.01-3.31h-4.6c.12,1.41,1.32,2.86,2.01,4.02,1.11,1.86,6.84,10.86,6.84,11.62"/>
  <path class="cls-3" d="M1071.06,653.51h18.05v-3.55h-13.81v-11.02h11.33c1.41,0,1.06-1.01,1.06-3.55h-12.39v-9.6h12.75v-3.91h-16.99v31.64Z"/>
  <path class="cls-3" d="M760.6,653.51h17.7v-3.55h-13.45v-11.02h11.33c1.41,0,1.06-1.01,1.06-3.55h-12.39v-9.6h12.74v-3.91h-16.99v31.64Z"/>
  <path class="cls-3" d="M1379.75,653.51h17.7v-3.55h-13.45v-11.02h10.97c1.41,0,1.06-1.01,1.06-3.55h-12.04v-9.6h12.74v-3.91h-16.99v31.64Z"/>
  <path class="cls-3" d="M832.46,623.29v29.16c0,1.48,1.23,1.07,4.25,1.07v-12.44c1.63.04,1.19.36,2.48.36,15.76,0,14.15-13.8,9.98-17.13-3.75-2.99-7.57-2.42-12.46-2.42-1.49,0-4.25,0-4.25,1.42M836.71,637.51v-12.09c5.87,0,10.97-.78,10.97,6.4s-8.35,5.69-10.97,5.69"/>
  <path class="cls-3" d="M704.67,629.34c0,3.2.34,5.59,4.13,7.95,2.32,1.44,4.36,1.9,6.74,3.18,6.39,3.46,2.86,12.87-7.38,9.55-1.44-.47-2.02-1.13-3.49-1.48-.12,1.4-.72,2.09-1.06,3.56,9.26,4.92,19.12.63,19.12-6.04,0-3.31.26-5.6-3.74-8.33-4.4-3.01-10.45-2.96-10.21-8.33.15-3.43,3.16-4.31,6.16-4.31,2.73,0,3.69.96,5.66,1.42.14-1.73.73-2.13,1.06-3.55-3.69-.86-1.58-1.41-7.5-1.42h-.29c-4.58,0-9.2,3.34-9.2,7.82"/>
  <path class="cls-3" d="M1015.13,629.34c0,3.29.25,5.45,4.17,7.9,3.84,2.4,11.2,3.13,9.65,9.5-1.07,4.38-6.83,4.4-10.33,3.27-1.44-.47-2.02-1.13-3.49-1.48-.04,1.85-.57,1.89-.71,3.56,8.75,4.65,18.76,1.21,18.76-6.04s-2.08-7.8-9.96-11.33c-8.41-3.76-2.92-13.42,7.84-8.23.49-1.02.78-2.33,1.06-3.55-1.76-.85-3.77-1.32-5.79-1.42h-1.61c-5.02.25-9.59,2.85-9.59,7.82"/>
  <path class="cls-3" d="M935.83,624.71c0,.82.25,1.07,1.06,1.07h8.5v27.73h4.25v-27.73h8.5c1.62,0,1.62-3.91,0-3.91h-22.3v2.84Z"/>
  <path class="cls-3" d="M1207.7,622.94v30.58h17.7v-3.56h-13.1v-27.02c0-1.42-1-1.07-3.54-1.07-.82,0-1.06.25-1.06,1.07"/>
  <path class="cls-3" d="M1346.47,653.51h17.7v-3.55h-13.45v-27.02c0-.82-.25-1.07-1.06-1.07h-3.18v31.64Z"/>
  <path class="cls-3" d="M631.22,653.51h17.15v-3.55h-13.45v-23.47c.02-4.96,1-4.62-3.7-4.62v31.64Z"/>
  <path class="cls-3" d="M1323.82,622.94v30.58h4.25v-31.65h-3.19c-.82,0-1.06.25-1.06,1.07"/>
  <rect x="630.68" y="621.87" width=".54" height="31.64"/>
  <path class="cls-3" d="M1236.14,636.28c0,18.25,11.67,16.27,18.9,18.71l9.42,2.63c.04-1.85.57-1.89.71-3.56-1.5-.13-6.73-1.57-9.2-1.78l.46-.25c.07-.03.38-.19.47-.24l2.62-1.63c9.99-7.18,6.34-29.16-7.44-29.16h-.27c-5.58.02-7.55.52-11.69,4.7-2.17,2.19-3.98,6.32-3.98,10.59M1250.66,650.15c-3.19,0-5.46-1.47-6.98-3.3-4.92-5.88-4.77-22.3,7.69-22.3,5.44,0,9.2,6.05,9.2,11.73v2.13c0,6.13-3.88,11.73-9.91,11.73"/>
  <path class="cls-3" d="M1123.92,646.6l-15.58-25.25c-5.83,0-4.6-2.54-4.6,13.51v18.13h4.25v-13.16c0-4.55-.35-8.05-.35-12.8l15.58,25.96h4.6v-31.65c-5.18,0-4.25-2.15-4.25,10.67,0,2.49,0,4.98,0,7.48,0,2.6.36,4.19.36,7.1M1123.92,646.6c.36.48.35-.75.35,1.07-.33-.44-.23.4-.35-1.07"/>
  <path class="cls-3" d="M658.76,637.35c0,21.77,29.03,22.04,29.03-.35,0-8-5.14-16-13.1-16h-.24c-5.03.02-8.79.81-12.01,5.12-1.17,1.56-1.98,2.96-2.58,4.87-.49,1.55-1.1,4.42-1.1,6.36M663.36,637.71c0-6.2,3.04-13.16,9.2-13.16h1.77c11.26,0,12.84,25.6-1.42,25.6-3.05,0-5.77-2.02-7.02-3.97-1.44-2.23-2.54-4.91-2.54-8.48"/>
  <path class="cls-3" d="M969.22,637.35c0,21.77,29.03,22.04,29.03-.35,0-8-5.14-16-13.1-16h-.24c-5.03.02-8.79.81-12.01,5.12-1.17,1.56-1.98,2.96-2.58,4.87-.49,1.55-1.1,4.42-1.1,6.36M973.83,637.71c0-6.2,3.04-13.16,9.2-13.16h1.77c11.56,0,12.24,25.6-.71,25.6-6.41,0-10.27-5.95-10.27-12.44"/>
  <path class="cls-3" d="M1412.08,622.77v30.22h4.6v-13.51c5.29,0,7.56-.48,9.52,4.67l2.17,8.85h4.6l-2.33-8.68c-1.06-4.77-2.36-4.83-4.39-6.61,7.95-1.86,7.99-16.36-3.54-16.36l-8.63.22c-1.14.18-1.99-.03-1.99,1.2M1420.58,636.28h-3.89v-11.38c13.93-3.26,14.07,11.38,3.89,11.38"/>
  <path class="cls-3" d="M901.26,621.7v31.29h4.6v-13.51c8.55,0,7.91.52,10.39,9.12.47,1.61.96,2.94,1.29,4.39h4.6c-2.05-3.88-2.02-9.44-3.9-12.44-.91-1.46-2.06-1.79-2.83-2.85,7.43-1.74,8.07-16.36-3.9-16.36l-10.26.35ZM909.75,636.28h-3.89v-11.38c3.89-.91,10.62-.47,10.62,4.27,0,3.52-.61,7.11-6.73,7.11"/>
  <path class="cls-3" d="M1164.63,652.99h4.25c.37-1.61.98-3.18,1.54-4.85.6-1.77,1.22-2.93,1.64-4.75h11.33c.24,2.96,2.59,6.64,2.83,9.6h4.6c-.15-1.78-9.71-27.7-10.62-31.64h-4.96c-.98,2.04-1.76,5.23-2.68,7.62l-7.94,24.03ZM1177.38,625.97c1.05.77.36-.41,1.27,3.35.85,3.51,2.56,7.2,3.33,10.52h-8.85c.89-1.85,4.06-11.6,4.25-13.87"/>
  <path class="cls-3" d="M1281.45,642.33c0,2.89,1.54,6.46,2.92,8.09,5.3,6.24,20.09,3.83,20.09-8.09v-20.98h-3.89c0,5.19.63,21.05-1.3,25.01-1.57,3.21-6.39,5.03-10.09,2.78-4.82-2.93-3.48-12.47-3.48-19.61,0-9.38,1.1-8.18-4.25-8.18v20.98Z"/>
  <path class="cls-3" d="M866.92,622.42v30.58h18.05v-3.56h-13.45v-11.02h12.04v-3.55h-12.04v-9.6h12.04c1.62,0,1.62-3.91,0-3.91h-15.58c-.82,0-1.06.25-1.06,1.07"/>
  <path class="cls-3" d="M800.36,636.99c0,1.09-8.71,14.14-9.2,16h4.6c1.25-1.88,2.39-4.33,3.56-6.38.9-1.58,3.12-4.67,3.52-6.42.79.58,1.41,1.94,2.01,2.96.74,1.26,1.33,1.99,2.09,3.24,1.4,2.28,2.48,4.3,3.69,6.6h4.96l-9.91-16,8.75-14.03c1.26-1.88.96-1.62-3.09-1.62-1.65,0-7.5,11.55-7.79,12.8-.79-.58-2.98-5-3.66-6.28-.67-1.25-1.1-1.84-1.77-3.2-.69-1.41-1.24-2.15-2.01-3.31h-4.6c.12,1.41,1.32,2.86,2.01,4.02,1.11,1.86,6.84,10.86,6.84,11.62"/>
  <path class="cls-3" d="M1069.76,652.99h18.05v-3.55h-13.81v-11.02h11.33c1.41,0,1.06-1.01,1.06-3.55h-12.39v-9.6h12.75v-3.91h-16.99v31.64Z"/>
  <path class="cls-3" d="M759.3,652.99h17.7v-3.55h-13.45v-11.02h11.33c1.41,0,1.06-1.01,1.06-3.55h-12.39v-9.6h12.74v-3.91h-16.99v31.64Z"/>
  <path class="cls-3" d="M1378.45,652.99h17.7v-3.55h-13.45v-11.02h10.97c1.41,0,1.06-1.01,1.06-3.55h-12.04v-9.6h12.74v-3.91h-16.99v31.64Z"/>
  <path class="cls-3" d="M831.16,622.77v29.16c0,1.48,1.23,1.07,4.25,1.07v-12.44c1.63.04,1.19.36,2.48.36,15.76,0,14.15-13.8,9.98-17.13-3.75-2.99-7.57-2.42-12.46-2.42-1.49,0-4.25,0-4.25,1.42M835.41,636.99v-12.09c5.87,0,10.97-.78,10.97,6.4s-8.35,5.69-10.97,5.69"/>
  <path class="cls-3" d="M703.37,628.82c0,3.2.34,5.59,4.13,7.95,2.32,1.44,4.36,1.9,6.74,3.18,6.39,3.46,2.86,12.87-7.38,9.55-1.44-.47-2.02-1.13-3.49-1.48-.12,1.4-.72,2.09-1.06,3.56,9.26,4.92,19.12.63,19.12-6.04,0-3.31.26-5.6-3.74-8.33-4.4-3.01-10.45-2.96-10.21-8.33.15-3.43,3.16-4.31,6.16-4.31,2.73,0,3.69.96,5.66,1.42.14-1.73.73-2.13,1.06-3.55-3.69-.86-1.58-1.41-7.5-1.42h-.29c-4.58,0-9.2,3.34-9.2,7.82"/>
  <path class="cls-3" d="M1013.83,628.82c0,3.29.25,5.45,4.17,7.9,3.84,2.4,11.2,3.13,9.65,9.5-1.07,4.38-6.83,4.4-10.33,3.27-1.44-.47-2.02-1.13-3.49-1.48-.04,1.85-.57,1.89-.71,3.56,8.75,4.65,18.76,1.21,18.76-6.04s-2.08-7.8-9.96-11.33c-8.41-3.76-2.92-13.42,7.84-8.23.49-1.02.78-2.33,1.06-3.55-1.76-.85-3.77-1.32-5.79-1.42h-1.61c-5.02.25-9.59,2.85-9.59,7.82"/>
  <path class="cls-3" d="M934.53,624.19c0,.82.25,1.07,1.06,1.07h8.5v27.73h4.25v-27.73h8.5c1.62,0,1.62-3.91,0-3.91h-22.3v2.84Z"/>
  <path class="cls-3" d="M1206.41,622.42v30.58h17.7v-3.56h-13.1v-27.02c0-1.42-1-1.07-3.54-1.07-.82,0-1.06.25-1.06,1.07"/>
  <path class="cls-3" d="M1345.18,652.99h17.7v-3.55h-13.45v-27.02c0-.82-.25-1.07-1.06-1.07h-3.18v31.64Z"/>
  <path class="cls-3" d="M629.93,652.99h17.15v-3.55h-13.45v-23.47c.02-4.96,1-4.62-3.7-4.62v31.64Z"/>
  <path class="cls-3" d="M1322.52,622.42v30.58h4.25v-31.65h-3.19c-.82,0-1.06.25-1.06,1.07"/>
  <rect x="629.38" y="621.35" width=".54" height="31.64"/>
  <path class="cls-3" d="M434.46,339.62c-.42-.33-.85-.65-1.27-.98-.93-.71-1.88-1.41-2.82-2.11-.68-.5-1.35-.99-2.04-1.48-.67-.49-1.35-.97-2.03-1.45-.94-.66-1.88-1.32-2.83-1.96-.49-.33-.98-.67-1.47-1-.71-.47-1.42-.94-2.13-1.4-32.51-17.63-69.75-27.66-109.34-27.66-63.42,0-120.84,25.71-162.4,67.27-41.56,41.56-67.27,98.98-67.27,162.4s25.71,120.84,67.27,162.4c11.14,11.14,23.42,21.14,36.65,29.81.91.49,1.82.98,2.74,1.46.15.08.31.16.46.24,31.77,16.61,67.9,26,106.24,26,63.42,0,120.84-25.71,162.4-67.27,41.56-41.56,67.27-98.98,67.27-162.4s-25.71-120.84-67.27-162.4c-6.95-6.95-14.34-13.46-22.13-19.47M294.19,289.39c40.02,0,77.67,10.14,110.54,27.97.13.07.26.14.39.21,2.68,1.46,5.33,2.97,7.94,4.53l16.32,9.75c16.52,9.87,31.71,21.74,45.24,35.27,42,42,67.98,100.03,67.98,164.12s-25.98,122.12-67.98,164.12c-42,42-100.03,67.98-164.12,67.98-43.44,0-84.1-11.94-118.87-32.71l-16.32-9.75c-16.52-9.87-31.71-21.74-45.24-35.27-42-42-67.98-100.03-67.98-164.12s25.98-122.12,67.98-164.12c42-42,100.03-67.98,164.12-67.98"/>
  <path class="cls-3" d="M425.71,369.04c5.85-1.63,2.81-3.74,8.42,0-1.17-4.9-3.27-7-7.95-8.64-2.34-.7-1.17-.23-2.81-.7-6.31-1.63-5.14-3.27-10.52-3.74.47,6.07-.94,1.63,1.64,4.44,0,.23,3.97,2.57,4.21,2.8,2.81,1.63,5.14,3.04,7.01,5.84"/>
  <path class="cls-3" d="M455.17,392.62c-3.51-5.37-1.4-2.57,0-8.17-2.81-2.1-5.14-3.74-9.35-4.67,1.17,5.37,2.1,3.04,3.51,5.84,1.87,3.74-3.74,1.63.23,5.6,1.64,1.87,2.57,1.4,5.61,1.4"/>
  <path class="cls-3" d="M463.59,409.19c0,1.63,2.1,4.9,3.27,6.07,2.1,2.8,2.1,3.04,6.08,3.27-.94-2.8-1.4-1.63-3.51-4.67,6.08-.47,2.1,1.17,3.51-2.33-3.04-.7-2.57-.47-5.14.7-.23.23-.47.47-.7.47,2.1-4.67,1.4-4.44-2.34-7-.94,1.4-1.17,1.17-1.17,3.5"/>
  <path class="cls-3" d="M496.56,477.6c-.23-2.1-6.08-23.81-8.65-16.34-.47,1.4.47,1.4,1.87,4.2.7.93,2.1,3.5,2.57,4.67,1.64,5.37-2.81,6.77,4.21,7.47"/>
  <path class="cls-3" d="M444.65,379.78c-.47-5.6-3.51-7.24-8.18-8.41,0,6.3,2.1,7.7,8.18,8.41"/>
  <path class="cls-3" d="M486.04,436.28c-.47-5.6-1.64-4.67-7.25-5.84,2.34,4.67.47,5.37,7.25,5.84"/>
  <path class="cls-3" d="M488.37,445.85c-.47-4.9-.7-4.9-4.68-6.07.23,4.9.47,4.9,4.68,6.07"/>
  <path class="cls-1" d="M330.08,325.38h3.74c-1.87-2.57-.23-1.4-3.74-2.33v2.33Z"/>
  <path class="cls-3" d="M462.42,399.62c-.7,1.4-2.34-.23-.23,1.4,1.64,1.4.23.47,2.57,1.17-.7-2.57,1.4-.47-.94-2.57-2.1-1.63,0-.7-1.4,0"/>
  <path class="cls-3" d="M430.39,372.54c.23,1.4,2.57,2.57,1.64.23-.47-.93-2.1-3.27-1.64-.23"/>
  <polygon class="cls-3" points="488.37 445.85 488.37 447.02 489.78 445.85 488.37 445.85"/>
  <path class="cls-3" d="M155.62,391.6l4.68-1.4c.23-7.47-1.64-.7,7.48-11.21,1.17-1.4.23-.47,1.87-1.87l14.26-9.11c2.57,6.07,2.34,11.21,11.69,23.81,2.81,3.74,5.38,7,8.42,10.27.23.23.47.47.7.47l1.87,1.63c5.38,4.2,15.67,8.64,21.74,12.61,12.63,8.41,29.93,19.85,41.15,29.42.23.23.47.47.7.7l12.63,10.97c4.44,3.27,6.08,5.14,10.05,8.87,15.43,13.78,30.16,28.02,43.72,43.43,2.81,3.04,2.34,3.04,6.78,3.97-.47-4.67-.23-2.8-3.04-6.3-27.36-35.96-48.63-65.84-84.64-95.03-3.74-3.04-6.08-5.37-10.29-8.41l-59.15-36.42c.47-2.1,1.64-4.2,3.04-5.84,3.27-4.2,2.57-3.74,3.04.93h3.51c.94-3.5.47-1.87,2.34-4.67-2.81,0-2.1.47-3.51-.7-2.81-2.1.94-.7.94-.7,3.74-.7,3.27,1.63,7.01-2.33,1.87-1.87,2.1-3.5,4.68-6.07,2.34-2.57,2.57-3.27,6.08-4.2-2.57,3.97-5.85,4.67-7.01,9.34,5.14,0,8.65-2.1,12.39-4.2.94-.47,1.4-.7,2.34-1.17l5.38-7.7c15.67,1.4,11.22-3.74,28.29-3.5-.47-6.77-1.64-1.4-3.51-7l11.69-1.17v3.5c10.29-.23,23.15-7,31.1-6.3,4.91.47,8.88.23,13.79.47,8.42,0,17.07,3.97,24.78,3.5,5.38-.23,6.55-2.34,10.99-1.4,4.91,1.17,4.44,2.57,11.46,2.57v3.5c6.55,0,3.97.23,8.88,1.87,4.91,1.4,4.91.93,8.88,2.8,13.79,6.07,7.72,3.27,20.34,6.77.23,0,4.44,1.4,4.44,1.63,4.91,1.87,3.27,2.1,7.01,4.67l7.72,4.2c3.51,2.57,2.1,2.8,8.88,2.8-1.64-5.37-6.78-7.24-11.46-9.81-5.85-3.03-7.95-6.3-14.5-7.94-3.04-.93-4.68-1.17-7.72-3.04-.23-.23-.94-.7-1.4-.93-1.87-1.17-5.14-1.17-8.42-3.27-2.57-1.63-.23-.47-3.51-2.33-8.42-4.44-17.77-4.9-26.65-7.47l-28.53-4.9c-5.61-.47-3.74,1.17-9.82.7-6.55-.47-13.09-1.17-21.51-1.17s-12.63.47-20.11,1.17c-8.42.93-16.83,5.14-24.55,8.41-11.92,4.67-21.74,4.9-32.97,11.91l-14.73,7.7c-11.46,6.54-5.14,2.8-13.09,9.34-8.18,7-4.91,1.87-18.7,15.64l-16.13,15.41c-1.87,2.33-3.27,3.97-5.38,6.77-3.74,5.14-5.38,7.94-9.82,12.61-2.81,3.04-6.78,9.11-9.12,13.07l-11.69,21.48c-3.27,7.94-7.48,16.11-10.05,24.28-2.1,7.7,1.87-4.67-.47,1.87l-2.57,5.6c-1.4,4.9.47,5.14.23,9.57-.47,6.77-3.27,12.61-3.97,18.44-1.64,10.97-2.34,38.52.7,49.5l1.4,10.27c.23,4.44,1.4,5.6,2.1,8.64.7,4.2-.47,7.7-.23,10.74l1.17,3.74c3.74,8.41-3.04,1.87,11.92,29.18l2.57,5.84c.7,1.63,0,.47.94,2.33l24.32,36.19c2.81,3.27,2.57,2.33,5.14,6.54,7.72,12.61,24.32,22.41,35.54,31.75,8.42,7,17.3,12.61,27.12,17.74,37.18,18.21,30.86,9.11,40.45,12.61,22.21,8.17,25.02,5.84,47.46,9.34,13.56,2.1,22.91-1.17,35.07-2.33,6.78-.47,12.63-2.57,18.94-3.27,11.69-1.17,7.95-3.04,15.9-5.6l13.33-4.2c.23,0,.7-.23.94-.23l38.35-20.55c2.1-.93,5.14-3.27,7.25-4.67,7.95-5.37,13.79-11.91,21.04-17.98,7.01-5.84,13.79-12.61,18.7-20.08,2.57-3.97,1.87-3.27,5.14-6.77,4.21-4.9,17.07-28.02,20.34-35.26,5.14-12.37,15.2-37.59,16.6-50.43.94-6.77-.94-3.97.23-9.11,1.4-5.37,2.1-14.48,2.57-20.08h-4.68l-4.68,16.58c-.94,4.9-.47,2.1-1.64,5.6-1.17,4.67-.23,7.94-1.4,12.61-1.17,3.97-2.34,7.7-3.51,11.91-1.17,4.2-2.1,6.54-3.51,10.51l-13.79,31.29c-5.14,10.04-5.38,9.57-19.87,9.57H140.19l-6.08-.93c-4.44-1.17-1.87-.23-4.44-3.97-10.52-16.11-8.65-18.44-10.76-23.35l-9.35-27.08c-.94-2.57-1.64-4.44-1.87-6.3l-6.78-37.12c-1.4-5.14.23-7.47,1.17-12.61,1.4-8.41.7-21.01.94-27.32,0-5.6,5.38-14.48,6.55-21.95,1.4-9.81,5.61-13.31,4.68-22.18h4.91c0-8.41,2.34-10.97,5.38-18.21,3.51-8.17,9.82-14.24,14.73-21.95,1.4-2.57,2.81-4.44,4.68-7,4.21-6.77,7.72-5.84,11.69-13.07M364.41,333.7c1.4-1.17,6.55,1.87,2.1.7-1.17-.23-3.97,1.4-2.1-.7M213.37,344.44l2.1-2.8c-.47,3.5.7,1.63-2.1,2.8M155.62,391.6c-2.34.47-1.87.23-3.51,1.17.94-3.5,0-2.57,3.51-3.5v2.33Z"/>
  <path class="cls-3" d="M413.98,495.5v1.17c-8.89,0-11.22.47-18.24,3.97-8.88,4.44-13.33,12.14-16.83,22.18l-8.18,22.41c-1.87,4.2-3.27,6.3-5.14,10.27-9.12,17.04-28.06,25.45-46.53,30.12-17.77,4.67-35.31,4.2-57.28,4.2v3.5c5.38.23,4.68,1.17,10.76,1.17,26.65,0,43.26.93,67.81-7.7l10.29-3.97c9.59-4.2,18.71-9.81,26.65-16.81,10.76-9.57,18.24-19.38,25.49-32.45,16.6-31.05,21.74-26.62,25.49-32.22-3.04-4.2-3.04-1.63-7.72-3.97l-3.04-3.04c-3.27-3.5-5.85-4.2-10.99-5.6-27.12-7-32.03,7.24-38.11,29.42-4.21,15.41-8.42,38.76-21.51,49.5l-3.27,2.8c-.7,1.17-3.27,7,3.51,2.1,10.05-7.7,17.54-19.38,22.21-31.05,4.68-11.91,8.42-30.12,18.24-39.46,8.65-8.17,14.26-6.54,26.42-6.54"/>
  <path class="cls-3" d="M344.54,502.5c6.31,0,33.9-36.66,47-36.66,14.26,0,19.87,1.17,32.27,15.18,2.81,3.27,2.34,4.44,7.95,4.9l-4.91-8.17c-8.42-10.51-19.17-24.75-37.64-24.75-12.39,0-23.85,10.74-30.63,18.68l-15.2,15.41c-2.1-1.4-4.68-5.14-6.55-7.7-2.81-4.2-3.04-4.44-6.31-7.94l-72.72-68.88-30.16-19.38c-3.97-2.33-.7-1.87-5.85-2.33.47,5.14.7,3.04,6.78,7.47,10.05,7,35.54,27.08,42.32,34.09l38.58,38.29c2.57,3.27,4.68,4.67,7.25,7.94,8.18,10.51,12.39,14.48,20.11,26.15,1.4,1.87,1.64,2.33,3.04,3.97,1.64,2.33,1.17,3.74,4.68,3.74"/>
  <path class="cls-3" d="M212.2,414.02c.7,6.54,6.31,14.01,10.05,19.38,23.38,35.02,34.14,30.82,67.34,53l43.96,31.75c2.81,2.34,6.31,7,8.42,4.67,2.1-2.1-2.57-5.14-4.91-7l-49.57-48.56q-.94-.7-1.87-1.63l-18.47-15.64c-1.17-.7-1.17-.47-2.1-1.4-9.35-7-45.36-34.09-52.84-34.55"/>
  <path class="cls-3" d="M300.82,555.5c-.94-1.87-1.64-3.5-2.57-5.6l-5.38-11.21c-1.4-3.5-1.17-3.27-2.81-6.54l-10.52-24.98c1.64.93,32.03,12.14,45.13,18.68l14.96,7.24c-.23-4.2,0-3.04-2.57-5.6l-14.73-12.37c-12.16-9.81-57.05-41.33-67.57-42.26,0,10.97,14.5,36.89,18.94,45.06l18,30.12c2.81,4.2,3.51,7,9.12,7.47"/>
  <path class="cls-3" d="M269.02,555.5c-3.97.93-7.48,3.74-10.52,6.07l-29.23,21.71c-5.38,3.74-8.88,5.6-13.79,9.81l-46.29,32.69c-15.9,8.64,10.29,5.84,14.96,4.44,5.38-1.63,21.74-14.94,26.19-18.91,4.21-3.74,8.65-6.77,12.86-10.51l23.61-21.25c3.97-3.74,7.25-7.24,11.22-11.21,6.55-6.77,9.82-7.7,10.99-12.84"/>
  <path class="cls-3" d="M197,631.15c43.02-3.74,22.45-2.8,55.65-43.43,2.34-3.04,3.97-5.14,4.44-9.81-5.14,2.8-18.71,15.18-19.41,15.88l-38.58,32.45c-3.04,3.27-1.64-.93-2.1,4.9"/>
  <path class="cls-3" d="M430.58,492.93c-2.57-.47-2.81-.93-5.85-1.17.7,9.34,22.21,13.78,33.9,18.21l29.69,11.44c4.68,1.87,3.51,2.1,8.42,2.33-.47-6.07-4.91-6.3-14.73-11.21-3.51-1.63-5.61-2.8-8.65-4.44l-17.54-8.64c-3.51-1.63-5.14-2.57-8.65-3.97-3.74-1.63-5.14-2.57-9.12-4.2-1.64-.93-2.81-1.4-3.97-1.4-4.68.47-2.81,1.17-3.51,3.04"/>
  <path class="cls-3" d="M395.28,475.42c0,10.04,8.65,9.34,12.39,6.3,3.97-3.27,5.61-12.37-6.55-12.37-2.81,0-5.85,3.27-5.85,6.07"/>
  <path class="cls-3" d="M423.84,367.52c5.85-1.63,2.81-3.74,8.42,0-1.17-4.9-3.27-7-7.95-8.64-2.34-.7-1.17-.23-2.81-.7-6.31-1.63-5.14-3.27-10.52-3.74.47,6.07-.94,1.63,1.64,4.44,0,.23,3.97,2.57,4.21,2.8,2.81,1.63,5.14,3.04,7.01,5.84"/>
  <path class="cls-3" d="M453.3,391.1c-3.51-5.37-1.4-2.57,0-8.17-2.81-2.1-5.14-3.74-9.35-4.67,1.17,5.37,2.1,3.04,3.51,5.84,1.87,3.74-3.74,1.63.23,5.6,1.64,1.87,2.57,1.4,5.61,1.4"/>
  <path class="cls-3" d="M461.72,407.68c0,1.63,2.1,4.9,3.27,6.07,2.1,2.8,2.1,3.04,6.08,3.27-.94-2.8-1.4-1.63-3.51-4.67,6.08-.47,2.1,1.17,3.51-2.33-3.04-.7-2.57-.47-5.14.7-.23.23-.47.47-.7.47,2.1-4.67,1.4-4.44-2.34-7-.94,1.4-1.17,1.17-1.17,3.5"/>
  <path class="cls-3" d="M494.69,476.09c-.23-2.1-6.08-23.81-8.65-16.34-.47,1.4.47,1.4,1.87,4.2.7.93,2.1,3.5,2.57,4.67,1.64,5.37-2.81,6.77,4.21,7.47"/>
  <path class="cls-3" d="M442.78,378.26c-.47-5.6-3.51-7.24-8.18-8.41,0,6.3,2.1,7.7,8.18,8.41"/>
  <path class="cls-3" d="M484.17,434.76c-.47-5.6-1.64-4.67-7.25-5.84,2.34,4.67.47,5.37,7.25,5.84"/>
  <path class="cls-3" d="M486.5,444.34c-.47-4.9-.7-4.9-4.68-6.07.23,4.9.47,4.9,4.68,6.07"/>
  <path class="cls-3" d="M460.55,398.11c-.7,1.4-2.34-.23-.23,1.4,1.64,1.4.23.47,2.57,1.17-.7-2.57,1.4-.47-.94-2.57-2.1-1.63,0-.7-1.4,0"/>
  <path class="cls-3" d="M428.52,371.02c.23,1.4,2.57,2.57,1.64.23-.47-.93-2.1-3.27-1.64-.23"/>
  <polygon class="cls-3" points="486.5 444.34 486.5 445.5 487.91 444.34 486.5 444.34"/>
  <path class="cls-2" d="M1350.8,425.52v-3.18h-23.34c-10.26,0-16.62-2.82-17.68,6l-15.56,58.62c-4.6,19.78-23.69,87.58-23.69,99.59,24.05,0,30.77,3.53,33.6-7.42,2.83-11.3,4.95-22.6,7.43-33.55h37.49c.71,7.42,8.13,35.67,10.61,40.97h32.18c0-7.06-33.6-140.2-38.9-155.74-1.77-5.3.71-.35-2.12-5.3M1272.29,425.16c.35-.35,5.3-.71-1.77-2.47l-32.18,3.18c-1.41,1.77-.35,0-1.77,3.53l-18.04,51.56c-.35,1.06-1.06,3.88-1.41,4.24l-1.41,3.88c0,.35-.35.71-.71,1.06l-22.28-63.21c-.35-.35-.71-.71-.71-1.41v-3.18h-35.72l1.41,5.3c2.12,6.36,5.66,14.48,8.49,20.48l26.52,59.33c7.43,16.6,4.6,27.55,4.6,52.27,0,34.26-3.89,26.84,32.18,26.84v-49.79c0-9.89-1.06-15.54,2.12-22.95l24.76-51.91c4.24-10.24,13.79-26.13,15.91-36.73M1330.99,458.01c0,15.19,9.2,42.73,12.73,57.21h-26.88c.71-9.89,7.43-31.08,9.55-43.79,1.77-9.18-.71-9.18,4.6-13.42"/>
  <path class="cls-3" d="M1614.98,565.36c0,9.18,16.27,22.25,24.4-.71l20.16-60.03c3.18,3.53,2.48,2.82,4.24,8.12l10.61,30.37c3.54,8.83,8.49,36.02,20.87,34.61,10.96-1.41,14.15-23.66,18.74-34.96,2.83-7.42,9.55-33.9,15.21-38.14.35,8.48,15.21,46.97,19.45,58.98,8.13,23.66,23.34,13.42,23.34-.35,0-6.71-23.34-73.81-27.59-84.76-6.01-15.54-6.01-24.01-18.74-24.01-9.55,0-14.85,24.37-17.68,32.49-4.24,12.36-9.9,26.49-12.73,38.85-6.37-4.59-1.41.35-4.6-7.77l-17.33-50.5c-3.54-9.89-4.24-13.07-15.56-13.07-9.2,0-20.87,44.14-23.69,52.97-3.54,10.59-19.1,51.56-19.1,57.92"/>
  <path class="cls-3" d="M758.07,465.07v98.18c0,9.54,4.95,11.3,10.96,14.48,15.21-3.53,12.38-10.95,12.38-28.6v-42.73c3.18,2.12,10.96,13.77,13.79,18.01,4.95,7.06,8.13,12.36,13.09,19.07,7.43,9.54,21.57,35.32,30.06,34.26,6.01-3.18,10.96-4.94,10.96-14.48v-94.29c0-10.24-4.95-14.48-14.5-14.48-4.24,0-5.3,2.82-8.84,5.3v66.04c-1.41-1.41-1.77-1.77-3.18-3.88l-35.01-50.5c-5.3-8.12-13.09-24.01-25.11-14.13-1.41,1.06-4.6,5.3-4.6,7.77"/>
  <path class="cls-3" d="M1124.1,540.29c0,7.06-1.77,5.3-5.3,10.59-13.44,0-38.19-1.41-49.87,0-19.1,2.47-11.32,26.84,0,26.84,42.09,0,78.51,8.12,78.51-40.97,0-13.07-9.55-26.84-18.74-31.43-9.9-4.94-32.54-1.41-45.62-4.24-3.89-16.24-2.12-13.42,3.54-21.54h55.17c11.67-17.3,1.77-25.07-3.54-25.07-43.15,0-65.78-7.06-77.8,20.13-10.26,23.66,3.18,51.91,27.94,54.74,7.07.71,16.27,0,23.34,0,9.19,0,12.38,2.12,12.38,10.95"/>
  <path class="cls-3" d="M1509.59,509.92v10.59c0,28.25,24.4,57.21,51.99,57.21s51.63-28.96,51.63-57.21v-10.59c0-24.72-22.63-55.44-46.33-55.44h-10.96c-23.7,0-46.33,30.72-46.33,55.44M1532.93,515.22c0-46.62,56.94-46.26,56.94,0s-56.94,47.32-56.94,0"/>
  <path class="cls-3" d="M963.54,577.72h26.52c3.89-8.12,6.72-22.25,9.2-32.14h21.22c14.15,29.66-8.49,32.14,32.18,32.14,8.13,0,2.83-10.59-2.48-27.9l-25.11-92.52c-3.54-4.59,3.54-1.06-22.28-1.06-10.96,0-4.6-7.77-13.79,24.01l-25.46,97.47ZM1008.11,502.86h3.54c0,7.06,2.12,11.65,3.54,17.66h-10.61c1.41-6,3.18-10.59,3.54-17.66"/>
  <path class="cls-3" d="M1424,515.22c0,16.24,7.43,34.26,15.56,43.44,19.45,21.54,32.18,19.07,61.18,19.07,17.33,0,22.28-26.49-1.77-26.84-19.1-.35-31.12,4.24-42.79-10.95-13.44-17.3-8.13-49.09,9.9-57.56,9.9-4.24,29.71-2.82,43.5-2.82,11.67-17.3,1.41-25.07-3.54-25.07h-33.95c-26.52,0-48.1,32.84-48.1,60.74"/>
  <path class="cls-3" d="M626.16,459.77v110.89c0,10.24,19.45,9.18,19.45-7.42v-33.9c32.18,0,53.76,5.3,53.76-15.89,0-15.54-32.89-10.59-53.76-10.59v-23.31h57.29c12.73,0,12.73-25.07,0-25.07h-71.44c-4.24,0-5.3,1.41-5.3,5.3"/>
  <path class="cls-3" d="M859.92,516.98c0,30.72,22.99,60.74,53.4,60.74,14.15,0,37.49,3.53,37.49-12.36,0-21.9-24.05-12.01-42.44-14.48-29.35-3.88-35.72-58.62-3.54-69.22,17.33-6,58.71,8.12,42.44-25.43-13.44-3.18-21.22-1.77-37.49-1.77-30.41,0-49.87,31.43-49.87,62.51"/>
  <path class="cls-3" d="M724.12,467.19v99.94c0,12.71,23.34,15.89,23.34-3.88v-94.29c0-18.36-23.34-19.78-23.34-1.77"/>
  <path class="cls-3" d="M1407.73,561.48c0,20.84,23.34,21.19,23.34,0,0-13.42-23.34-14.13-23.34,0"/>
  <circle class="cls-5" cx="1794.64" cy="423.24" r="52.9" transform="translate(-47.43 504.76) rotate(-15.8)"/>
  <path d="M1808.28,407.8c0-3.35-1.04-5.83-3.14-7.46-2.09-1.61-5.23-2.41-9.43-2.41h-14.18v19.96h13.94c4.16,0,7.33-.83,9.53-2.49,2.18-1.68,3.28-4.2,3.28-7.6M1816.58,407.56c0,4.16-1.13,7.6-3.38,10.33-2.25,2.72-5.58,4.67-9.95,5.82l-.04.25c.96.35,1.85.93,2.66,1.71.8.79,1.71,1.97,2.71,3.58.99,1.59,2.23,3.86,3.71,6.81l7.68,15.23h-8.96l-6.37-13.09c-1.62-3.41-3.13-6.02-4.5-7.82-1.38-1.8-2.97-3.13-4.79-4-1.82-.87-4.1-1.3-6.82-1.3h-6.99v26.21h-8.01v-60.54h22.35c6.92,0,12.09,1.44,15.53,4.31,3.45,2.89,5.17,7.05,5.17,12.5"/>
  <rect class="cls-4" x="-87.01" y="289.39" width="788.02" height="685.51"/>
</svg>